<?xml version="1.0" encoding="utf-8"?>
<!-- Generator: Adobe Illustrator 23.0.3, SVG Export Plug-In . SVG Version: 6.00 Build 0)  -->
<svg version="1.1" id="Layer_1" xmlns="http://www.w3.org/2000/svg" xmlns:xlink="http://www.w3.org/1999/xlink" x="0px" y="0px"
	 viewBox="0 0 142.85 84.27" style="enable-background:new 0 0 142.85 84.27;" xml:space="preserve">
<style type="text/css">
	.st0{fill:#7AC143;stroke:#7AC143;stroke-width:0.2553;stroke-miterlimit:10;}
	.st1{fill:#711011;stroke:#711011;stroke-width:0.2553;stroke-miterlimit:10;}
	.st2{fill:#E7C033;stroke:#E7C033;stroke-width:0.2553;stroke-miterlimit:10;}
	.st3{fill:#6F54A3;stroke:#6F54A3;stroke-width:0.2553;stroke-miterlimit:10;}
	.st4{fill:#FBA91D;stroke:#FBA91D;stroke-width:0.2553;stroke-miterlimit:10;}
	.st5{fill:#3EA2DA;}
	.st6{fill:#414042;}
	.st7{fill:#7AC143;}
	.st8{fill:#711011;}
	.st9{fill:#E7C033;}
	.st10{fill:#6F54A3;}
	.st11{fill:#FBA91D;}
	.st12{fill:#7AC143;stroke:#7AC143;stroke-width:0.3456;stroke-miterlimit:10;}
	.st13{fill:#711011;stroke:#711011;stroke-width:0.3456;stroke-miterlimit:10;}
	.st14{fill:#E7C033;stroke:#E7C033;stroke-width:0.3456;stroke-miterlimit:10;}
	.st15{fill:#6F54A3;stroke:#6F54A3;stroke-width:0.3456;stroke-miterlimit:10;}
	.st16{fill:#FBA91D;stroke:#FBA91D;stroke-width:0.3456;stroke-miterlimit:10;}
</style>
<g>
	<g>
		<g>
			<path class="st0" d="M29.89,34.13c-0.66,1.5-1.57,2.76-2.74,3.78c-1.17,1.02-2.57,1.8-4.2,2.33c-1.63,0.54-3.43,0.81-5.41,0.81
				c-2.78,0-5.51-0.51-8.18-1.53c-2.68-1.02-5.11-2.58-7.29-4.69l4.74-6.05c1.67,1.44,3.38,2.59,5.13,3.44
				c1.75,0.85,3.67,1.28,5.76,1.28c1.67,0,2.96-0.32,3.88-0.97c0.92-0.65,1.38-1.55,1.38-2.69v-0.11c0-0.56-0.1-1.05-0.29-1.47
				c-0.19-0.42-0.56-0.82-1.1-1.19c-0.54-0.37-1.29-0.74-2.25-1.11c-0.96-0.37-2.2-0.76-3.74-1.17c-1.85-0.48-3.52-1.02-5.02-1.61
				c-1.5-0.59-2.77-1.32-3.81-2.19c-1.04-0.87-1.85-1.95-2.43-3.25c-0.57-1.3-0.86-2.91-0.86-4.83v-0.11c0-1.78,0.31-3.38,0.93-4.8
				c0.62-1.43,1.49-2.66,2.61-3.69c1.12-1.04,2.46-1.83,4.02-2.39c1.56-0.56,3.27-0.83,5.15-0.83c2.67,0,5.13,0.43,7.37,1.28
				c2.24,0.85,4.3,2.07,6.17,3.67l-4.17,6.44c-1.63-1.18-3.23-2.12-4.79-2.8c-1.56-0.68-3.13-1.03-4.69-1.03
				c-1.56,0-2.74,0.32-3.52,0.97c-0.78,0.65-1.17,1.45-1.17,2.42v0.11c0,0.63,0.11,1.18,0.34,1.64c0.23,0.46,0.63,0.88,1.23,1.25
				c0.59,0.37,1.4,0.72,2.43,1.06c1.03,0.33,2.32,0.72,3.89,1.17c1.84,0.52,3.49,1.1,4.94,1.75c1.45,0.65,2.66,1.43,3.66,2.33
				c0.99,0.91,1.74,1.97,2.25,3.19c0.5,1.22,0.76,2.68,0.76,4.39v0.11C30.87,30.92,30.54,32.63,29.89,34.13z"/>
			<path class="st1" d="M61.66,21.1c-0.76,1.7-1.82,3.13-3.15,4.28c-1.34,1.15-2.9,2.01-4.69,2.58c-1.79,0.57-3.71,0.86-5.76,0.86
				h-6.1v11.66h-8.02V1.61h14.9c2.19,0,4.14,0.32,5.86,0.97c1.72,0.65,3.18,1.56,4.38,2.75c1.2,1.19,2.12,2.6,2.76,4.25
				c0.64,1.65,0.96,3.47,0.96,5.47v0.11C62.81,17.42,62.43,19.4,61.66,21.1z M54.68,15.22c0-1.92-0.58-3.39-1.75-4.39
				c-1.16-1-2.75-1.5-4.77-1.5h-6.2v11.89h6.36c2.01,0,3.58-0.56,4.69-1.69c1.11-1.13,1.67-2.53,1.67-4.19V15.22z"/>
			<path class="st2" d="M65.21,40.49V1.61h8.02v38.88H65.21z"/>
			<path class="st3" d="M107.57,37.1c-1.01,0.85-2.11,1.58-3.31,2.19c-1.2,0.61-2.51,1.07-3.93,1.39c-1.42,0.31-3.02,0.47-4.79,0.47
				c-2.68,0-5.16-0.52-7.45-1.56c-2.29-1.04-4.27-2.45-5.94-4.25c-1.67-1.8-2.97-3.92-3.91-6.36c-0.94-2.44-1.41-5.05-1.41-7.83
				v-0.11c0-2.78,0.47-5.38,1.41-7.8c0.94-2.42,2.24-4.55,3.91-6.39c1.67-1.83,3.66-3.28,5.99-4.33s4.9-1.58,7.71-1.58
				c1.7,0,3.26,0.15,4.66,0.44c1.41,0.3,2.68,0.7,3.83,1.22c1.15,0.52,2.21,1.15,3.18,1.89c0.97,0.74,1.88,1.56,2.71,2.44
				l-5.11,6.28c-1.42-1.37-2.88-2.44-4.35-3.22c-1.48-0.78-3.13-1.17-4.98-1.17c-1.53,0-2.94,0.31-4.25,0.94
				c-1.3,0.63-2.42,1.5-3.36,2.61c-0.94,1.11-1.67,2.4-2.19,3.86c-0.52,1.46-0.78,3.03-0.78,4.69v0.11c0,1.67,0.26,3.24,0.78,4.72
				c0.52,1.48,1.24,2.78,2.16,3.89c0.92,1.11,2.03,1.99,3.33,2.64c1.3,0.65,2.74,0.97,4.3,0.97c2.08,0,3.85-0.41,5.29-1.22
				c1.44-0.81,2.87-1.92,4.3-3.33l5.11,5.5C109.55,35.29,108.57,36.25,107.57,37.1z"/>
			<path class="st4" d="M112.98,40.49V1.61h27.46v7.61H120.9v7.89h17.19v7.61H120.9v8.16h19.8v7.61H112.98z"/>
			<path class="st5" d="M6.1,46.49v11.8h15.17v1.92H6.1v12.95H4.11V44.57H23v1.92H6.1z"/>
			<path class="st5" d="M26.22,73.16V44.57h1.99v28.59H26.22z"/>
			<path class="st5" d="M42.58,46.49v26.67h-1.99V46.49h-9.35v-1.92h20.69v1.92H42.58z"/>
			<path class="st5" d="M75.49,73.16L56.6,47.76v25.4h-1.92V44.57h1.88l18.51,24.87V44.57h1.92v28.59H75.49z"/>
			<path class="st5" d="M81.66,73.16V44.57h19.08v1.92H83.65V57.8h15.36v1.92H83.65v11.52h17.28v1.92H81.66z"/>
			<path class="st5" d="M121.33,68.93c-0.45,0.97-1.06,1.79-1.84,2.47c-0.78,0.68-1.71,1.21-2.8,1.59
				c-1.09,0.38-2.28,0.57-3.58,0.57c-2.15,0-4.08-0.38-5.8-1.14c-1.72-0.76-3.39-1.91-5-3.43l1.3-1.59c0.74,0.73,1.48,1.37,2.2,1.9
				s1.47,0.97,2.24,1.31c0.77,0.34,1.57,0.6,2.41,0.78c0.84,0.18,1.76,0.27,2.76,0.27s1.92-0.14,2.76-0.43
				c0.84-0.29,1.56-0.68,2.15-1.18c0.59-0.5,1.05-1.1,1.38-1.8s0.5-1.45,0.5-2.27v-0.08c0-0.76-0.11-1.44-0.33-2.04
				c-0.22-0.6-0.61-1.14-1.19-1.63c-0.57-0.49-1.35-0.93-2.32-1.33c-0.97-0.39-2.22-0.76-3.75-1.08c-1.61-0.35-2.99-0.77-4.14-1.25
				c-1.15-0.48-2.09-1.03-2.82-1.67c-0.73-0.64-1.26-1.38-1.59-2.23c-0.33-0.84-0.5-1.81-0.5-2.9v-0.08c0-1.06,0.22-2.05,0.65-2.96
				c0.43-0.91,1.03-1.71,1.8-2.39c0.77-0.68,1.67-1.21,2.72-1.59c1.05-0.38,2.2-0.57,3.45-0.57c1.94,0,3.62,0.29,5.04,0.86
				c1.42,0.57,2.8,1.44,4.16,2.61l-1.26,1.67c-1.28-1.17-2.56-2-3.85-2.49c-1.29-0.49-2.68-0.74-4.16-0.74c-1,0-1.9,0.14-2.7,0.43
				c-0.8,0.29-1.49,0.67-2.07,1.16c-0.57,0.49-1.02,1.06-1.32,1.72c-0.31,0.65-0.46,1.35-0.46,2.08v0.08c0,0.76,0.11,1.45,0.33,2.06
				c0.22,0.61,0.61,1.17,1.19,1.67c0.57,0.5,1.37,0.96,2.39,1.37c1.02,0.41,2.32,0.79,3.91,1.14c3.12,0.68,5.36,1.64,6.74,2.88
				c1.38,1.24,2.07,2.91,2.07,5v0.08C122,66.91,121.78,67.97,121.33,68.93z"/>
			<path class="st5" d="M142.18,68.93c-0.45,0.97-1.06,1.79-1.84,2.47c-0.78,0.68-1.71,1.21-2.8,1.59
				c-1.09,0.38-2.28,0.57-3.58,0.57c-2.15,0-4.08-0.38-5.8-1.14c-1.72-0.76-3.39-1.91-5-3.43l1.3-1.59c0.74,0.73,1.48,1.37,2.2,1.9
				s1.47,0.97,2.24,1.31c0.77,0.34,1.57,0.6,2.41,0.78c0.84,0.18,1.76,0.27,2.76,0.27s1.92-0.14,2.76-0.43
				c0.84-0.29,1.56-0.68,2.15-1.18c0.59-0.5,1.05-1.1,1.38-1.8s0.5-1.45,0.5-2.27v-0.08c0-0.76-0.11-1.44-0.33-2.04
				c-0.22-0.6-0.61-1.14-1.19-1.63c-0.57-0.49-1.35-0.93-2.32-1.33c-0.97-0.39-2.22-0.76-3.75-1.08c-1.61-0.35-2.99-0.77-4.14-1.25
				c-1.15-0.48-2.09-1.03-2.82-1.67c-0.73-0.64-1.26-1.38-1.59-2.23c-0.33-0.84-0.5-1.81-0.5-2.9v-0.08c0-1.06,0.22-2.05,0.65-2.96
				c0.43-0.91,1.03-1.71,1.8-2.39c0.77-0.68,1.67-1.21,2.72-1.59c1.05-0.38,2.2-0.57,3.45-0.57c1.94,0,3.62,0.29,5.04,0.86
				c1.42,0.57,2.8,1.44,4.16,2.61l-1.26,1.67c-1.28-1.17-2.56-2-3.85-2.49c-1.29-0.49-2.68-0.74-4.16-0.74c-1,0-1.9,0.14-2.7,0.43
				c-0.8,0.29-1.49,0.67-2.07,1.16c-0.57,0.49-1.02,1.06-1.32,1.72c-0.31,0.65-0.46,1.35-0.46,2.08v0.08c0,0.76,0.11,1.45,0.33,2.06
				c0.22,0.61,0.61,1.17,1.19,1.67c0.57,0.5,1.37,0.96,2.39,1.37c1.02,0.41,2.32,0.79,3.91,1.14c3.12,0.68,5.36,1.64,6.74,2.88
				c1.38,1.24,2.07,2.91,2.07,5v0.08C142.85,66.91,142.62,67.97,142.18,68.93z"/>
		</g>
	</g>
	<g>
		<path class="st6" d="M7.59,82.69c-0.13,0.1-0.27,0.19-0.42,0.27s-0.32,0.13-0.5,0.17s-0.38,0.06-0.61,0.06
			c-0.34,0-0.66-0.06-0.95-0.19c-0.29-0.13-0.54-0.3-0.76-0.52C4.14,82.26,3.97,82,3.85,81.7c-0.12-0.3-0.18-0.61-0.18-0.95v-0.01
			c0-0.34,0.06-0.65,0.18-0.95c0.12-0.29,0.29-0.55,0.5-0.78c0.21-0.22,0.47-0.4,0.76-0.53c0.3-0.13,0.62-0.19,0.98-0.19
			c0.22,0,0.42,0.02,0.59,0.05s0.34,0.09,0.49,0.15s0.28,0.14,0.4,0.23c0.12,0.09,0.24,0.19,0.34,0.3l-0.65,0.76
			c-0.18-0.17-0.37-0.3-0.55-0.39c-0.19-0.09-0.4-0.14-0.63-0.14c-0.19,0-0.37,0.04-0.54,0.11c-0.17,0.08-0.31,0.18-0.43,0.32
			s-0.21,0.29-0.28,0.47s-0.1,0.37-0.1,0.57v0.01c0,0.2,0.03,0.39,0.1,0.57c0.07,0.18,0.16,0.34,0.28,0.47
			c0.12,0.14,0.26,0.24,0.42,0.32c0.17,0.08,0.35,0.12,0.55,0.12c0.27,0,0.49-0.05,0.67-0.15c0.18-0.1,0.37-0.23,0.55-0.4l0.65,0.67
			C7.84,82.47,7.71,82.59,7.59,82.69z"/>
		<path class="st6" d="M13.32,81.69c-0.12,0.29-0.29,0.55-0.51,0.78c-0.22,0.22-0.48,0.4-0.78,0.53c-0.3,0.13-0.63,0.19-0.99,0.19
			c-0.36,0-0.69-0.06-0.99-0.19c-0.3-0.13-0.56-0.3-0.78-0.52c-0.22-0.22-0.39-0.47-0.51-0.77c-0.12-0.29-0.18-0.61-0.18-0.95v-0.01
			c0-0.34,0.06-0.65,0.19-0.95c0.12-0.29,0.29-0.55,0.51-0.78c0.22-0.22,0.48-0.4,0.78-0.53s0.63-0.19,0.99-0.19
			s0.69,0.06,0.99,0.19c0.3,0.13,0.56,0.3,0.78,0.52c0.22,0.22,0.39,0.47,0.51,0.77c0.12,0.29,0.18,0.61,0.18,0.95v0.01
			C13.5,81.08,13.44,81.39,13.32,81.69z M12.43,80.74c0-0.2-0.03-0.39-0.1-0.57c-0.07-0.18-0.17-0.34-0.29-0.47
			s-0.28-0.24-0.45-0.32c-0.17-0.08-0.36-0.12-0.56-0.12c-0.21,0-0.4,0.04-0.57,0.11c-0.17,0.08-0.32,0.18-0.44,0.32
			c-0.12,0.13-0.22,0.29-0.29,0.47s-0.1,0.37-0.1,0.57v0.01c0,0.2,0.03,0.39,0.1,0.57c0.07,0.18,0.17,0.34,0.29,0.47
			c0.13,0.14,0.27,0.24,0.44,0.32c0.17,0.08,0.36,0.12,0.57,0.12c0.2,0,0.39-0.04,0.56-0.11c0.17-0.08,0.32-0.18,0.44-0.32
			c0.12-0.13,0.22-0.29,0.29-0.47c0.07-0.18,0.1-0.37,0.1-0.57V80.74z"/>
		<path class="st6" d="M18.04,83.1v-3.08l-1.31,2.02h-0.03l-1.29-2v3.06h-1.01v-4.72h1.1l1.22,2l1.22-2h1.1v4.72H18.04z"/>
		<path class="st6" d="M23.8,83.1v-3.08l-1.31,2.02h-0.03l-1.29-2v3.06h-1.01v-4.72h1.1l1.22,2l1.22-2h1.1v4.72H23.8z"/>
		<path class="st6" d="M29.75,81.98c-0.09,0.27-0.23,0.49-0.41,0.66c-0.18,0.18-0.39,0.31-0.64,0.4c-0.25,0.09-0.53,0.13-0.84,0.13
			c-0.62,0-1.11-0.18-1.47-0.53c-0.36-0.35-0.54-0.87-0.54-1.57v-2.7h1.02v2.67c0,0.39,0.09,0.68,0.27,0.87
			c0.18,0.2,0.42,0.29,0.74,0.29c0.31,0,0.56-0.09,0.74-0.28s0.26-0.47,0.26-0.85v-2.71h1.02v2.66
			C29.89,81.4,29.84,81.72,29.75,81.98z"/>
		<path class="st6" d="M34.19,83.1l-2.25-3v3h-1.01v-4.72h0.94l2.17,2.91v-2.91h1.01v4.72H34.19z"/>
		<path class="st6" d="M36.22,83.1v-4.72h1.02v4.72H36.22z"/>
		<path class="st6" d="M40.5,79.34v3.76h-1.02v-3.76h-1.41v-0.96h3.85v0.96H40.5z"/>
		<path class="st6" d="M45.02,81.22v1.88H44v-1.86l-1.78-2.86h1.19l1.11,1.9l1.13-1.9h1.16L45.02,81.22z"/>
		<path class="st6" d="M50.45,79.32v1.02h2.21v0.94h-2.21v1.83h-1.02v-4.72h3.53v0.94H50.45z"/>
		<path class="st6" d="M58.32,81.69c-0.12,0.29-0.29,0.55-0.51,0.78c-0.22,0.22-0.48,0.4-0.78,0.53c-0.3,0.13-0.63,0.19-0.99,0.19
			s-0.69-0.06-0.99-0.19c-0.3-0.13-0.56-0.3-0.78-0.52c-0.22-0.22-0.39-0.47-0.51-0.77c-0.12-0.29-0.18-0.61-0.18-0.95v-0.01
			c0-0.34,0.06-0.65,0.19-0.95s0.29-0.55,0.51-0.78c0.22-0.22,0.48-0.4,0.78-0.53c0.3-0.13,0.63-0.19,0.99-0.19
			c0.36,0,0.69,0.06,0.99,0.19s0.56,0.3,0.78,0.52c0.22,0.22,0.39,0.47,0.51,0.77c0.12,0.29,0.18,0.61,0.18,0.95v0.01
			C58.51,81.08,58.44,81.39,58.32,81.69z M57.44,80.74c0-0.2-0.03-0.39-0.1-0.57s-0.17-0.34-0.29-0.47s-0.27-0.24-0.45-0.32
			c-0.17-0.08-0.36-0.12-0.56-0.12c-0.21,0-0.4,0.04-0.57,0.11c-0.17,0.08-0.32,0.18-0.44,0.32c-0.12,0.13-0.22,0.29-0.29,0.47
			c-0.07,0.18-0.1,0.37-0.1,0.57v0.01c0,0.2,0.03,0.39,0.1,0.57c0.07,0.18,0.17,0.34,0.29,0.47c0.13,0.14,0.27,0.24,0.44,0.32
			c0.17,0.08,0.36,0.12,0.57,0.12c0.2,0,0.39-0.04,0.56-0.11c0.17-0.08,0.32-0.18,0.44-0.32c0.12-0.13,0.22-0.29,0.29-0.47
			s0.1-0.37,0.1-0.57V80.74z"/>
		<path class="st6" d="M62.23,83.1l-0.99-1.51h-0.8v1.51h-1.02v-4.72h2.12c0.55,0,0.98,0.14,1.29,0.41
			c0.31,0.27,0.46,0.66,0.46,1.15v0.01c0,0.38-0.09,0.69-0.28,0.93s-0.42,0.42-0.72,0.53l1.13,1.69H62.23z M62.25,79.99
			c0-0.23-0.07-0.39-0.21-0.51s-0.34-0.17-0.59-0.17h-1.01v1.36h1.03c0.25,0,0.45-0.06,0.58-0.18s0.2-0.28,0.2-0.49V79.99z"/>
		<path class="st6" d="M69.1,83.1v-1.9h-1.88v1.9H66.2v-4.72h1.02v1.87h1.88v-1.87h1.02v4.72H69.1z"/>
		<path class="st6" d="M75.78,81.69c-0.12,0.29-0.29,0.55-0.51,0.78c-0.22,0.22-0.48,0.4-0.78,0.53c-0.3,0.13-0.63,0.19-0.99,0.19
			s-0.69-0.06-0.99-0.19c-0.3-0.13-0.56-0.3-0.78-0.52c-0.22-0.22-0.39-0.47-0.51-0.77c-0.12-0.29-0.18-0.61-0.18-0.95v-0.01
			c0-0.34,0.06-0.65,0.19-0.95s0.29-0.55,0.51-0.78c0.22-0.22,0.48-0.4,0.78-0.53c0.3-0.13,0.63-0.19,0.99-0.19
			c0.36,0,0.69,0.06,0.99,0.19s0.56,0.3,0.78,0.52c0.22,0.22,0.39,0.47,0.51,0.77c0.12,0.29,0.18,0.61,0.18,0.95v0.01
			C75.96,81.08,75.9,81.39,75.78,81.69z M74.9,80.74c0-0.2-0.03-0.39-0.1-0.57s-0.17-0.34-0.29-0.47s-0.27-0.24-0.45-0.32
			c-0.17-0.08-0.36-0.12-0.56-0.12c-0.21,0-0.4,0.04-0.57,0.11c-0.17,0.08-0.32,0.18-0.44,0.32c-0.12,0.13-0.22,0.29-0.29,0.47
			c-0.07,0.18-0.1,0.37-0.1,0.57v0.01c0,0.2,0.03,0.39,0.1,0.57c0.07,0.18,0.17,0.34,0.29,0.47c0.13,0.14,0.27,0.24,0.44,0.32
			c0.17,0.08,0.36,0.12,0.57,0.12c0.2,0,0.39-0.04,0.56-0.11c0.17-0.08,0.32-0.18,0.44-0.32c0.12-0.13,0.22-0.29,0.29-0.47
			s0.1-0.37,0.1-0.57V80.74z"/>
		<path class="st6" d="M76.87,83.1v-4.72h1.02v3.78h2.31v0.94H76.87z"/>
		<path class="st6" d="M81.02,83.1v-4.72h1.02v4.72H81.02z"/>
		<path class="st6" d="M86.43,82.33c-0.08,0.18-0.2,0.33-0.35,0.46c-0.15,0.12-0.33,0.22-0.53,0.28c-0.21,0.06-0.44,0.1-0.69,0.1
			c-0.35,0-0.7-0.06-1.04-0.19c-0.34-0.12-0.65-0.31-0.93-0.57l0.6-0.74c0.21,0.18,0.43,0.31,0.65,0.42s0.47,0.15,0.73,0.15
			c0.21,0,0.38-0.04,0.49-0.12s0.18-0.19,0.18-0.33v-0.01c0-0.07-0.01-0.13-0.04-0.18s-0.07-0.1-0.14-0.15
			c-0.07-0.04-0.16-0.09-0.29-0.13s-0.28-0.09-0.48-0.14c-0.23-0.06-0.45-0.12-0.64-0.2c-0.19-0.07-0.35-0.16-0.49-0.27
			c-0.13-0.11-0.24-0.24-0.31-0.39c-0.07-0.16-0.11-0.35-0.11-0.59v-0.01c0-0.22,0.04-0.41,0.12-0.58c0.08-0.17,0.19-0.32,0.33-0.45
			s0.31-0.22,0.51-0.29s0.42-0.1,0.66-0.1c0.34,0,0.65,0.05,0.94,0.16s0.55,0.25,0.79,0.44l-0.53,0.78
			c-0.21-0.14-0.41-0.26-0.61-0.34c-0.2-0.08-0.4-0.12-0.6-0.12s-0.35,0.04-0.45,0.12c-0.1,0.08-0.15,0.18-0.15,0.29v0.01
			c0,0.08,0.01,0.14,0.04,0.2c0.03,0.06,0.08,0.11,0.16,0.15s0.18,0.09,0.31,0.13c0.13,0.04,0.29,0.09,0.5,0.14
			c0.23,0.06,0.44,0.13,0.63,0.21s0.34,0.17,0.47,0.28c0.13,0.11,0.22,0.24,0.29,0.39c0.06,0.15,0.1,0.33,0.1,0.53v0.01
			C86.56,81.94,86.52,82.15,86.43,82.33z"/>
		<path class="st6" d="M89.55,79.34v3.76h-1.02v-3.76h-1.41v-0.96h3.85v0.96H89.55z"/>
		<path class="st6" d="M91.79,83.1v-4.72h1.02v4.72H91.79z"/>
		<path class="st6" d="M97.68,82.69c-0.13,0.1-0.27,0.19-0.42,0.27s-0.32,0.13-0.5,0.17s-0.38,0.06-0.61,0.06
			c-0.34,0-0.66-0.06-0.95-0.19c-0.29-0.13-0.54-0.3-0.76-0.52c-0.21-0.22-0.38-0.48-0.5-0.77c-0.12-0.3-0.18-0.61-0.18-0.95v-0.01
			c0-0.34,0.06-0.65,0.18-0.95c0.12-0.29,0.29-0.55,0.5-0.78c0.21-0.22,0.47-0.4,0.76-0.53c0.3-0.13,0.62-0.19,0.98-0.19
			c0.22,0,0.42,0.02,0.59,0.05s0.34,0.09,0.49,0.15s0.28,0.14,0.4,0.23c0.12,0.09,0.24,0.19,0.34,0.3l-0.65,0.76
			c-0.18-0.17-0.37-0.3-0.55-0.39c-0.19-0.09-0.4-0.14-0.63-0.14c-0.19,0-0.37,0.04-0.54,0.11c-0.17,0.08-0.31,0.18-0.43,0.32
			s-0.21,0.29-0.28,0.47s-0.1,0.37-0.1,0.57v0.01c0,0.2,0.03,0.39,0.1,0.57c0.07,0.18,0.16,0.34,0.28,0.47
			c0.12,0.14,0.26,0.24,0.42,0.32c0.17,0.08,0.35,0.12,0.55,0.12c0.27,0,0.49-0.05,0.67-0.15c0.18-0.1,0.37-0.23,0.55-0.4l0.65,0.67
			C97.93,82.47,97.81,82.59,97.68,82.69z"/>
		<path class="st6" d="M105.95,83.13h-0.89l-1.05-3.09l-1.05,3.09h-0.89l-1.58-4.76h1.09l0.96,3.2l1.04-3.21h0.88l1.04,3.21
			l0.96-3.2h1.07L105.95,83.13z"/>
		<path class="st6" d="M108.29,83.1v-4.72h3.49v0.92h-2.49v0.96h2.19v0.92h-2.19v0.99h2.52v0.92H108.29z"/>
		<path class="st6" d="M112.73,83.1v-4.72h1.02v3.78h2.31v0.94H112.73z"/>
		<path class="st6" d="M116.84,83.1v-4.72h1.02v3.78h2.31v0.94H116.84z"/>
		<path class="st6" d="M124.76,82.37c-0.08,0.16-0.2,0.3-0.35,0.4s-0.33,0.19-0.55,0.24c-0.21,0.05-0.45,0.08-0.71,0.08h-2.2v-4.72
			h2.15c0.48,0,0.85,0.11,1.12,0.33s0.41,0.52,0.41,0.89v0.01c0,0.13-0.02,0.25-0.05,0.36c-0.03,0.1-0.08,0.2-0.13,0.28
			c-0.06,0.08-0.12,0.16-0.19,0.22c-0.07,0.06-0.15,0.12-0.23,0.16c0.27,0.1,0.48,0.24,0.63,0.42c0.15,0.18,0.23,0.42,0.23,0.74
			v0.01C124.88,82.02,124.84,82.21,124.76,82.37z M123.61,79.77c0-0.16-0.06-0.28-0.17-0.36c-0.12-0.08-0.28-0.13-0.5-0.13h-1.01v1
			h0.94c0.22,0,0.4-0.04,0.54-0.12c0.13-0.08,0.2-0.21,0.2-0.38V79.77z M123.87,81.66c0-0.16-0.06-0.28-0.18-0.37
			c-0.12-0.09-0.31-0.14-0.58-0.14h-1.18v1.04h1.21c0.23,0,0.4-0.04,0.53-0.12c0.13-0.08,0.19-0.21,0.19-0.39V81.66z"/>
		<path class="st6" d="M125.73,83.1v-4.72h3.49v0.92h-2.49v0.96h2.19v0.92h-2.19v0.99h2.52v0.92H125.73z"/>
		<path class="st6" d="M130.22,83.1v-4.72h1.02v4.72H130.22z"/>
		<path class="st6" d="M135.66,83.1l-2.25-3v3h-1.01v-4.72h0.94l2.17,2.91v-2.91h1.01v4.72H135.66z"/>
		<path class="st6" d="M141,82.96c-0.33,0.15-0.71,0.22-1.13,0.22c-0.36,0-0.69-0.06-0.99-0.18c-0.3-0.12-0.55-0.29-0.77-0.51
			c-0.21-0.22-0.38-0.47-0.5-0.77s-0.18-0.62-0.18-0.97v-0.01c0-0.34,0.06-0.65,0.18-0.95c0.12-0.29,0.29-0.55,0.51-0.78
			c0.22-0.22,0.47-0.4,0.77-0.53s0.62-0.19,0.97-0.19c0.21,0,0.4,0.01,0.57,0.04s0.33,0.07,0.47,0.13c0.15,0.05,0.28,0.12,0.41,0.2
			s0.25,0.17,0.37,0.28l-0.64,0.79c-0.09-0.08-0.18-0.14-0.27-0.2c-0.09-0.06-0.18-0.11-0.27-0.15c-0.1-0.04-0.2-0.07-0.31-0.09
			s-0.23-0.03-0.37-0.03c-0.19,0-0.36,0.04-0.52,0.12c-0.16,0.08-0.3,0.19-0.42,0.32c-0.12,0.13-0.22,0.29-0.29,0.47
			c-0.07,0.18-0.1,0.37-0.1,0.57v0.01c0,0.22,0.03,0.42,0.1,0.6s0.17,0.34,0.29,0.48c0.13,0.14,0.27,0.24,0.44,0.31
			c0.17,0.07,0.36,0.11,0.57,0.11c0.38,0,0.7-0.1,0.96-0.29v-0.68h-1.03v-0.9h2.02v2.05C141.62,82.64,141.33,82.82,141,82.96z"/>
	</g>
</g>
</svg>
